<svg width="106" height="80" viewBox="0 0 106 80" fill="none" xmlns="http://www.w3.org/2000/svg">
<path fill-rule="evenodd" clip-rule="evenodd" d="M52.6854 6.83414C47.5535 1.70223 33.4832 -5.47238 18.094 6.65344C17.9448 6.77104 17.8054 6.90361 17.6725 7.03944C17.6277 7.08523 17.5777 7.13599 17.5227 7.19173C14.5312 10.2242 -3.00204 27.9978 25.9502 60.5259C30.6803 65.4933 42.6495 76.3424 52.6854 79.9999V79.9811L52.689 79.9999C62.7249 76.3424 74.694 65.4933 79.4241 60.5259C108.376 27.9978 90.8432 10.2242 87.8517 7.19173C87.7967 7.13599 87.7466 7.08523 87.7018 7.03944C87.569 6.90361 87.4296 6.77104 87.2803 6.65344C71.8911 -5.47238 57.8209 1.70223 52.689 6.83414L52.6854 6.85233V6.83414Z" fill="#00BFFF"/>
<path d="M54.6982 28.2612L51.5835 39.5958C50.8107 42.4082 47.5499 43.686 45.0721 42.1473L35.2008 36.0176L24.5269 42.8229C23.8259 43.2698 23.0118 43.5073 22.1804 43.5073H4.0314C2.31972 43.5073 0.932129 42.1197 0.932129 40.408C0.932129 38.6963 2.31972 37.3087 4.0314 37.3087H21.6456L32.8414 30.1706C34.2569 29.2682 36.0645 29.2574 37.4905 30.143L46.2569 35.5866L50.7681 19.1699C51.987 14.7342 58.352 14.9579 59.2566 19.4681L65.228 49.2412L71.4291 40.001C72.2579 38.766 73.5606 38.0698 74.9272 38.0444V38.0437H94.84V44.6297H76.2444L67.9206 56.3525C65.7579 59.5752 60.7799 58.5839 60.0167 54.7786L54.6982 28.2612Z" fill="#107ACA"/>
<ellipse cx="97.1644" cy="41.5306" rx="7.90314" ry="7.67069" fill="#FFCD4D"/>
</svg>
