<svg width="72" height="80" viewBox="0 0 72 80" fill="none" xmlns="http://www.w3.org/2000/svg">
<path fill-rule="evenodd" clip-rule="evenodd" d="M71.9034 77.5016V28.5713V16.428V16.0318C71.9034 15.3674 71.6443 14.7635 71.2218 14.3159C71.1344 14.1947 71.0392 14.0784 70.9364 13.9679L65.776 8.4209L65.1762 8.69157L63.7504 13.5337H8.02665C6.64892 13.5337 5.53204 14.6522 5.53204 16.0319V60.872H0.666814L0.172889 71.8795C0.12446 72.9873 0.587267 74.3461 1.42797 75.0677L6.07219 79.0542C6.27061 79.3043 6.5159 79.5155 6.79477 79.6744L6.82343 79.699L6.82585 79.6918C7.18208 79.8881 7.59135 79.9998 8.02666 79.9998H69.4088C70.7865 79.9998 71.9034 78.8813 71.9034 77.5016Z" fill="#00264C"/>
<rect x="0.0961914" y="7.63916" width="66.3113" height="66.4059" rx="2.40964" fill="#00BFFF"/>
<path fill-rule="evenodd" clip-rule="evenodd" d="M11.2982 2.40601C11.2982 1.07721 12.3739 0 13.7008 0H21.3891C22.716 0 23.7917 1.07721 23.7917 2.40601V7.63909H42.8922V2.40601C42.8922 1.07721 43.9679 0 45.2948 0H52.983C54.3099 0 55.3856 1.07721 55.3856 2.40601V7.63909H64.0049C65.3318 7.63909 66.4075 8.7163 66.4075 10.0451V28.812H0.0961914V10.0451C0.0961914 8.7163 1.17186 7.63909 2.49877 7.63909H11.2982V2.40601Z" fill="#107ACA"/>
<path d="M11.3906 37.47C11.3906 36.8046 11.93 36.2651 12.5954 36.2651H20.7882C21.4536 36.2651 21.993 36.8046 21.993 37.47V45.6627C21.993 46.3281 21.4536 46.8675 20.7882 46.8675H12.5954C11.93 46.8675 11.3906 46.3281 11.3906 45.6627V37.47Z" fill="#107ACA"/>
<path d="M11.3906 54.0959C11.3906 53.4305 11.93 52.8911 12.5954 52.8911H20.7882C21.4536 52.8911 21.993 53.4305 21.993 54.0959V62.2887C21.993 62.9541 21.4536 63.4935 20.7882 63.4935H12.5954C11.93 63.4935 11.3906 62.9541 11.3906 62.2887V54.0959Z" fill="#FFCD4D"/>
<path d="M28.3184 54.0964C28.3184 53.431 28.8578 52.8916 29.5232 52.8916H37.7159C38.3813 52.8916 38.9208 53.431 38.9208 54.0964V62.2892C38.9208 62.9546 38.3813 63.494 37.7159 63.494H29.5232C28.8578 63.494 28.3184 62.9546 28.3184 62.2892V54.0964Z" fill="#107ACA"/>
<path d="M45.2461 54.0964C45.2461 53.431 45.7855 52.8916 46.4509 52.8916H54.6437C55.3091 52.8916 55.8485 53.431 55.8485 54.0964V62.2892C55.8485 62.9546 55.3091 63.494 54.6437 63.494H46.4509C45.7855 63.494 45.2461 62.9546 45.2461 62.2892V54.0964Z" fill="white"/>
<path d="M28.3184 37.47C28.3184 36.8046 28.8578 36.2651 29.5232 36.2651H37.7159C38.3813 36.2651 38.9208 36.8046 38.9208 37.47V45.6627C38.9208 46.3281 38.3813 46.8675 37.7159 46.8675H29.5232C28.8578 46.8675 28.3184 46.3281 28.3184 45.6627V37.47Z" fill="white"/>
</svg>
